<?xml version="1.0" encoding="UTF-8"?>
<svg width="2995px" height="452px" viewBox="0 0 2995 452" version="1.1" xmlns="http://www.w3.org/2000/svg" xmlns:xlink="http://www.w3.org/1999/xlink">
    <!-- Generator: Sketch 47.1 (45422) - http://www.bohemiancoding.com/sketch -->
    <title>Page 1</title>
    <desc>Created with Sketch.</desc>
    <defs></defs>
    <g id="Welcome" stroke="none" stroke-width="1" fill="none" fill-rule="evenodd">
        <g id="Page-1" fill="#FEFEFE">
            <path d="M0,395.321762 C88.8114629,384.398002 163.959834,400.783642 259.603298,411.706491 C355.245852,422.630251 416.732042,422.630251 460.454118,422.630251 C504.177105,422.630251 585.089863,414.030521 585.089863,414.030521 C597.015805,415.30587 695.416665,408.772552 767.936993,418.593922 C921.265322,439.359989 1032.44385,426.234181 1104.56883,416.184323 C1181.59646,405.450818 1232.21612,402.354843 1283.01342,402.023489 C1333.81071,401.693045 1372.09907,399.469149 1414.3846,393.595808 C1456.67014,387.722466 1530.46668,390.297743 1596.8792,409.011054 C1663.29081,427.723454 1725.7098,425.621541 1788.13425,418.915262 C1850.55688,412.209895 1906.03911,399.870598 1979.8065,406.576876 C2028.98507,411.047424 2063.13141,414.385543 2082.24826,416.592143 C2187.49752,434.91857 2235.31971,448.57236 2309.10077,441.74592 C2382.88274,434.91857 2440.1258,425.900096 2507.21879,422.630251 C2563.23847,419.899311 2628.82204,426.725751 2679.37793,439.01498 C2729.93201,451.3033 2896.62374,464.957089 2995,428.091221 L2995,0 L3.17004863,0 L0,395.321762 Z" id="Fill-1"></path>
        </g>
    </g>
</svg>